<svg xmlns="http://www.w3.org/2000/svg" viewBox="0 0 512 512" role="img" aria-labelledby="title desc">
  <title id="title">SwitchCraft</title>
  <desc id="desc">A premium gold S-shaped routing symbol representing account switching.</desc>
  <defs>
    <linearGradient id="bg" x1="48" y1="32" x2="456" y2="480" gradientUnits="userSpaceOnUse">
      <stop stop-color="#171510"/>
      <stop offset="1" stop-color="#050505"/>
    </linearGradient>
    <linearGradient id="gold" x1="128" y1="116" x2="388" y2="398" gradientUnits="userSpaceOnUse">
      <stop stop-color="#FFF0B8"/>
      <stop offset="0.34" stop-color="#E3BD63"/>
      <stop offset="0.68" stop-color="#C89532"/>
      <stop offset="1" stop-color="#8F6414"/>
    </linearGradient>
  </defs>
  <rect x="20" y="20" width="472" height="472" rx="116" fill="url(#bg)"/>
  <rect x="20.75" y="20.75" width="470.5" height="470.5" rx="115.25" fill="none" stroke="#6E5725" stroke-opacity=".38" stroke-width="1.5"/>
  <path d="M132 150H319C355 150 382 176 382 209C382 241 357 266 321 266H203C166 266 140 292 140 325C140 358 166 382 203 382H378" fill="none" stroke="url(#gold)" stroke-width="42" stroke-linecap="round" stroke-linejoin="round"/>
  <path d="M326 112L385 150L326 188" fill="none" stroke="url(#gold)" stroke-width="30" stroke-linecap="round" stroke-linejoin="round"/>
  <path d="M186 344L127 382L186 420" fill="none" stroke="url(#gold)" stroke-width="30" stroke-linecap="round" stroke-linejoin="round"/>
  <rect x="236" y="236" width="40" height="40" rx="10" transform="rotate(45 256 256)" fill="#E5BE61" stroke="#FFF0B8" stroke-width="3"/>
</svg>